Coordinates
version=1
nRows=10
nColumns=40
inDegrees=yes

Units are S.I. units (second, meters, Newtons, ...)
Angles are in degrees.

endheader
time	pelvis_tilt	pelvis_list	pelvis_rotation	pelvis_tx	pelvis_ty	pelvis_tz	hip_flexion_r	hip_adduction_r	hip_rotation_r	knee_angle_r	knee_angle_r_beta	ankle_angle_r	subtalar_angle_r	mtp_angle_r	hip_flexion_l	hip_adduction_l	hip_rotation_l	knee_angle_l	knee_angle_l_beta	ankle_angle_l	subtalar_angle_l	mtp_angle_l	lumbar_extension	lumbar_bending	lumbar_rotation	arm_flex_r	arm_add_r	arm_rot_r	elbow_flex_r	pro_sup_r	wrist_flex_r	wrist_dev_r	arm_flex_l	arm_add_l	arm_rot_l	elbow_flex_l	pro_sup_l	wrist_flex_l	wrist_dev_l
      8.75000000	     -3.52192739	     -5.03689560	      1.58751075	      1.03262836	      0.93008643	      0.49937418	     11.11807368	      2.02625100	    -13.54951823	     16.96218349	     16.96218349	     10.64361421	     -1.11185255	     -4.33650507	     30.59053725	    -13.42327669	      3.36116621	     67.99111626	     67.99111626	      0.41883712	    -17.46397505	      7.91641316	     -9.89266911	      4.87561051	      2.24089662	     14.14655346	    -21.51857817	      0.92315963	     75.40605763	     45.70038922	      0.00000000	      0.00000000	     10.37035561	     -9.06767043	    -14.55734991	     38.85248162	     45.60365389	      0.00000000	      0.00000000
      8.76307143	     -3.72992683	     -4.86295266	      1.92375447	      1.03113577	      0.93043442	      0.50045821	     10.82307393	      1.96855819	    -13.68361600	     16.53207677	     16.53207677	     10.73542610	     -1.20113248	     -4.28495358	     31.97138897	    -13.34776737	      3.14351287	     66.82573705	     66.82573705	      0.85276569	    -17.88103024	      8.02930164	     -9.97930195	      4.54260112	      1.98501289	     15.99279201	    -21.17704539	      0.85834147	     77.28438839	     45.64391907	      0.00000000	      0.00000000	      9.38584645	     -9.08865744	    -14.50434884	     37.45424378	     45.59550157	      0.00000000	      0.00000000
      8.77614286	     -3.93132209	     -4.70694735	      2.26702841	      1.02965177	      0.93072691	      0.50150041	     10.51926945	      1.93832449	    -13.75794374	     16.09399267	     16.09399267	     10.83124612	     -1.36510913	     -4.21709641	     33.24632824	    -13.27296512	      2.88453388	     65.44914495	     65.44914495	      1.38944474	    -18.21578477	      8.39672334	    -10.10081117	      4.24544547	      1.81297331	     17.76790656	    -21.01625202	      0.97349859	     79.41327898	     45.57333038	      0.00000000	      0.00000000	      8.59741893	     -9.05881083	    -14.45453958	     35.72947379	     45.59370898	      0.00000000	      0.00000000
      8.78921429	     -4.12502012	     -4.56995944	      2.61727277	      1.02822090	      0.93100102	      0.50241213	     10.21441719	      1.91797399	    -13.84911659	     15.67266654	     15.67266654	     10.90359495	     -1.56054210	     -4.13843595	     34.37944361	    -13.19206816	      2.56774076	     63.77838165	     63.77838165	      2.07457606	    -18.49796917	      9.03773943	    -10.24340932	      3.99202706	      1.69788414	     19.42886027	    -20.88963325	      1.07424363	     81.49345778	     45.50560245	      0.00000000	      0.00000000	      7.93217089	     -9.00360192	    -14.41426839	     33.94887823	     45.59563196	      0.00000000	      0.00000000
      8.80228571	     -4.36942592	     -4.41050041	      2.95440728	      1.02672753	      0.93112543	      0.50320157	      9.98997584	      1.86752735	    -13.92740178	     15.27485544	     15.27485544	     10.96041238	     -1.83193600	     -4.14483539	     35.51492962	    -13.03720524	      2.19419660	     61.92255292	     61.92255292	      3.27871686	    -18.61944297	     11.29557333	    -10.32061193	      3.68862438	      2.30322739	     20.51356549	    -21.56696634	      1.32096235	     84.20192499	     45.40356354	      0.00000000	      0.00000000	      8.35053508	     -8.77697685	    -14.47811200	     30.45054137	     45.67757262	      0.00000000	      0.00000000
      8.81535714	     -4.57187466	     -4.27238603	      3.36243858	      1.02543358	      0.93121278	      0.50368570	      9.70091292	      1.81241660	    -14.01762452	     14.88476320	     14.88476320	     11.10697824	     -1.96901097	     -4.09729197	     36.32431829	    -12.82856744	      1.82199369	     59.51367604	     59.51367604	      4.11462760	    -18.78248023	     11.70496906	    -10.43104697	      3.46275738	      2.00413015	     22.22752380	    -21.03960082	      0.90531995	     85.83641555	     45.36988829	      0.00000000	      0.00000000	      7.45960321	     -8.71925242	    -14.50124669	     29.47685836	     45.68253421	      0.00000000	      0.00000000
      8.82842857	     -4.82475219	     -4.14138931	      3.77170802	      1.02409037	      0.93117618	      0.50390672	      9.49536714	      1.73895402	    -14.19628551	     14.53411361	     14.53411361	     11.19117024	     -2.21475818	     -4.13269057	     37.09172944	    -12.51378004	      1.47402281	     56.83474879	     56.83474879	      5.29205106	    -18.84362580	     13.23459510	    -10.49529390	      3.26082211	      2.16255429	     23.45968641	    -21.06690803	      0.64325396	     87.99319315	     45.30790880	      0.00000000	      0.00000000	      7.25752079	     -8.55858888	    -14.64399817	     27.50209747	     45.76911548	      0.00000000	      0.00000000
      8.84150000	     -5.07738963	     -3.95874528	      4.18157876	      1.02283055	      0.93109058	      0.50385327	      9.30186580	      1.58248892	    -14.35203766	     14.23286405	     14.23286405	     11.33048521	     -2.40728141	     -4.11329041	     37.57690820	    -12.04055787	      1.13066217	     53.66363979	     53.66363979	      6.09592404	    -18.87823888	     13.47954028	    -10.55458477	      2.98949061	      2.05173448	     24.95924651	    -20.72953201	      0.41873811	     89.33389800	     45.27800248	      0.00000000	      0.00000000	      6.46420030	     -8.52554083	    -14.65627929	     26.84093176	     45.76847941	      0.00000000	      0.00000000
      8.85457143	     -5.36935505	     -3.81635774	      4.62114182	      1.02161283	      0.93083117	      0.50346037	      9.16448605	      1.43406999	    -14.55363524	     13.96962481	     13.96962481	     11.47540195	     -2.60101645	     -4.12772619	     37.94091086	    -11.41645360	      1.01218994	     50.19190094	     50.19190094	      6.88681680	    -18.81296090	     13.68533863	    -10.55960033	      2.79555525	      1.94501282	     26.37997680	    -20.44614436	      0.28364841	     90.72960891	     45.24353143	      0.00000000	      0.00000000	      5.71752174	     -8.42545655	    -14.64956469	     26.17683857	     45.76465613	      0.00000000	      0.00000000
      8.86764286	     -5.68845371	     -3.68322357	      5.04978452	      1.02041830	      0.93046206	      0.50278121	      9.07746840	      1.26553964	    -14.77240654	     13.75467180	     13.75467180	     11.61102225	     -2.78274004	     -4.16524605	     38.14270444	    -10.64097029	      1.12648447	     46.47537358	     46.47537358	      7.63563586	    -18.60916864	     13.81215322	    -10.53169676	      2.63054762	      1.91028723	     27.69576570	    -20.23465463	      0.18316945	     92.00929345	     45.21156907	      0.00000000	      0.00000000	      5.03131753	     -8.27357974	    -14.63542195	     25.61181728	     45.75832587	      0.00000000	      0.00000000
